<?xml version="1.0" standalone="no"?>
<!DOCTYPE svg PUBLIC "-//W3C//DTD SVG 20010904//EN"
 "http://www.w3.org/TR/2001/REC-SVG-20010904/DTD/svg10.dtd">
<svg version="1.0" xmlns="http://www.w3.org/2000/svg"
 width="1280.000000pt" height="1037.000000pt" viewBox="0 0 1280.000000 1037.000000"
 preserveAspectRatio="xMidYMid meet">
<metadata>
Created by potrace 1.15, written by Peter Selinger 2001-2017
</metadata>
<g transform="translate(0.000000,1037.000000) scale(0.100000,-0.100000)"
fill="#000000" stroke="none">
<path d="M1275 10360 c-4 -6 -2 -16 3 -23 8 -10 -3 -12 -47 -12 -74 0 -129
-34 -160 -97 -27 -57 -27 -103 2 -158 68 -136 250 -131 318 8 26 53 26 53 41
30 11 -15 19 -20 26 -13 7 7 -19 54 -76 142 -48 73 -90 133 -94 133 -4 0 -10
-5 -13 -10z m22 -81 c30 -11 70 -68 78 -111 15 -78 -62 -168 -144 -168 -53 0
-106 34 -130 83 -25 51 -26 76 -7 120 35 82 112 111 203 76z"/>
<path d="M912 10118 c-8 -8 -8 -15 -1 -24 8 -10 -2 -12 -43 -12 -88 1 -156
-50 -178 -133 -37 -135 97 -255 232 -210 45 15 94 66 111 116 l14 40 8 -33
c14 -65 -15 -134 -68 -164 -12 -7 -46 -15 -75 -18 -65 -6 -69 -24 -6 -28 60
-4 95 11 138 59 38 41 52 89 43 146 -9 52 -159 277 -175 261z m11 -77 c38 -15
79 -75 84 -124 16 -158 -200 -218 -275 -76 -25 47 -24 87 4 142 30 56 118 84
187 58z"/>
<path d="M5779 10024 c-178 -30 -484 -166 -596 -265 -19 -16 -60 -42 -91 -58
-55 -28 -405 -182 -685 -302 -319 -137 -469 -225 -554 -328 -59 -72 -125 -197
-144 -276 -19 -79 -126 -344 -163 -405 -19 -30 -42 -79 -52 -108 l-19 -53 24
-62 c22 -58 24 -81 31 -347 6 -202 16 -349 34 -505 30 -250 32 -315 12 -353
-7 -15 -35 -92 -61 -172 -105 -325 -212 -571 -298 -685 -25 -33 -130 -143
-234 -245 -171 -168 -192 -192 -228 -265 -34 -67 -40 -90 -40 -142 0 -70 17
-95 92 -140 31 -18 53 -44 86 -101 51 -87 81 -119 117 -124 16 -2 27 -12 32
-28 22 -80 38 -176 38 -235 0 -36 5 -75 10 -85 12 -23 68 -40 129 -40 l44 0
-7 -32 c-3 -18 -35 -123 -70 -233 -37 -113 -76 -258 -90 -335 -26 -140 -63
-260 -136 -440 -94 -232 -116 -369 -129 -819 -5 -180 -10 -246 -19 -249 -7 -2
-19 -11 -28 -20 -18 -17 -15 -77 12 -296 8 -65 14 -173 13 -240 -2 -109 1
-129 26 -201 16 -49 30 -117 35 -175 5 -52 14 -112 20 -133 13 -43 19 -182 26
-630 l5 -317 47 -32 c26 -17 92 -75 147 -129 171 -167 222 -181 660 -184 381
-2 390 -4 755 -137 158 -58 212 -64 241 -29 26 32 24 67 -5 86 -13 9 -68 32
-122 51 -86 31 -194 93 -194 112 0 4 44 8 97 10 81 2 115 -2 217 -29 97 -25
148 -32 256 -36 213 -7 257 11 207 86 -15 22 -27 43 -27 46 0 3 24 5 53 6 63
0 116 17 131 42 15 24 -13 44 -124 93 -47 21 -87 39 -89 41 -2 1 3 11 12 20
25 29 39 73 27 88 -6 7 -63 23 -128 34 -64 12 -177 33 -251 47 -165 31 -297
42 -423 36 -66 -3 -98 -1 -98 6 0 6 7 36 15 67 22 85 19 88 -98 100 -32 3 -72
12 -89 21 -21 11 -40 14 -62 8 -17 -4 -92 -8 -168 -8 -110 -1 -140 -4 -155
-17 -37 -33 -60 -32 -99 3 l-36 34 18 106 18 107 -27 108 c-15 59 -27 116 -27
125 0 10 18 29 40 43 22 14 40 28 40 31 0 2 -9 22 -20 44 -13 26 -20 59 -20
97 0 64 14 101 26 70 11 -30 74 -54 186 -71 143 -23 274 -69 440 -155 76 -39
143 -71 151 -71 30 0 50 28 57 78 8 64 -5 97 -59 151 -23 23 -35 41 -27 41 7
0 78 -9 157 -19 108 -14 224 -20 464 -22 l319 -4 8 40 c5 22 22 53 39 72 17
17 29 35 26 40 -3 5 -29 25 -59 45 -40 27 -68 38 -113 43 -33 4 -102 20 -152
37 -90 30 -92 31 -78 51 19 28 19 52 -1 71 -13 14 -47 16 -217 16 -150 0 -217
4 -262 16 -39 10 -125 17 -250 20 -207 6 -251 14 -261 47 -3 12 -17 39 -31 59
-22 33 -24 43 -18 96 6 55 4 63 -29 126 -38 72 -40 103 -7 159 15 26 15 30 -7
67 -16 28 -22 55 -22 97 0 83 57 597 74 668 8 33 24 143 36 245 25 217 31 252
46 257 7 2 49 -44 94 -103 129 -167 209 -246 282 -280 55 -24 79 -29 188 -34
136 -5 163 -15 224 -79 22 -23 32 -28 38 -19 12 20 9 70 -6 101 -14 25 -13 27
5 27 11 0 40 -5 64 -11 82 -21 86 -10 22 58 -33 34 -56 67 -52 72 12 20 62 11
102 -18 42 -30 104 -64 150 -82 23 -8 21 -5 -14 29 -44 43 -59 88 -41 127 14
32 19 31 103 -5 82 -34 100 -37 92 -12 -3 9 -9 27 -13 39 l-6 23 66 -25 c74
-28 134 -33 142 -11 3 8 -2 28 -10 45 -9 16 -16 46 -16 65 l0 36 53 -20 c57
-22 112 -26 122 -10 4 6 -11 27 -32 46 l-38 36 40 -9 c51 -10 146 -10 210 1
l50 9 -79 13 c-107 17 -128 23 -124 35 2 5 46 31 98 57 52 26 95 52 95 57 0 6
-25 12 -55 15 -30 3 -55 10 -54 15 0 8 32 86 38 92 1 1 19 -2 41 -7 72 -16
207 -30 231 -24 32 8 30 18 -11 76 -29 40 -33 50 -20 54 17 7 88 0 120 -11 11
-3 -7 19 -40 49 -33 31 -63 56 -67 56 -3 0 -12 17 -19 38 -15 44 -17 184 -5
368 7 96 6 149 -4 200 -18 99 -64 229 -104 294 -18 30 -37 70 -41 88 -4 18
-31 84 -61 148 -46 95 -62 119 -94 140 -22 15 -40 31 -40 36 0 6 24 8 55 6
l54 -3 -36 37 c-45 46 -37 62 26 53 l46 -7 -29 31 c-16 17 -63 44 -105 61 -42
17 -87 36 -101 42 l-25 11 28 8 c17 5 55 1 102 -10 41 -10 75 -15 75 -11 0 12
-91 46 -160 60 -104 21 -98 33 15 28 73 -4 113 -11 149 -27 27 -11 51 -19 53
-17 14 13 -99 59 -212 86 -85 21 -148 43 -183 63 -64 38 -110 84 -96 96 5 5
58 23 117 40 182 53 286 117 303 187 11 42 -4 110 -37 175 -29 58 -30 66 -24
133 9 87 14 98 68 135 27 18 64 61 96 110 31 46 67 89 86 100 19 11 45 37 60
59 29 44 60 61 169 91 95 26 137 47 201 101 28 23 62 48 78 56 17 9 40 40 62
84 39 78 69 100 135 100 24 0 62 11 92 26 34 17 67 26 94 26 36 -1 54 7 117
53 130 93 171 104 195 51 11 -25 155 -126 235 -165 64 -31 79 -54 67 -106 -5
-22 -10 -65 -10 -96 0 -96 57 -160 342 -386 131 -104 343 -231 411 -247 47
-11 79 14 121 94 41 77 68 95 139 94 39 0 94 -10 145 -27 46 -15 141 -39 210
-52 70 -14 169 -35 220 -47 77 -18 97 -20 125 -10 19 7 45 12 59 12 25 0 109
-57 125 -84 4 -7 142 -155 305 -329 282 -299 302 -317 373 -353 93 -47 101
-65 60 -139 -26 -48 -26 -53 -12 -81 24 -47 47 -139 47 -187 0 -54 -41 -120
-150 -242 -103 -115 -140 -197 -140 -314 0 -55 -7 -84 -44 -175 -25 -60 -49
-138 -55 -175 -6 -36 -20 -228 -31 -426 -12 -198 -29 -477 -40 -620 -11 -143
-24 -363 -30 -490 -23 -507 -32 -628 -60 -820 -17 -110 -42 -255 -56 -321 -32
-148 -29 -178 25 -227 100 -90 217 -100 486 -42 180 39 282 52 340 41 l35 -7
0 -197 c-1 -265 -16 -536 -34 -596 -8 -26 -24 -57 -35 -68 -18 -16 -21 -31
-21 -93 0 -42 -9 -111 -22 -162 -16 -67 -22 -120 -22 -220 -1 -166 4 -175 124
-228 19 -9 48 -23 65 -32 36 -20 180 -43 515 -83 329 -40 512 -71 685 -117
127 -34 152 -37 265 -37 82 1 166 8 243 22 66 12 147 22 181 22 35 0 85 7 112
15 27 8 76 15 109 15 44 0 67 6 85 20 14 11 37 20 52 20 34 0 58 24 58 59 0
15 7 48 15 73 11 30 15 73 13 129 l-3 83 -30 7 c-16 4 -64 12 -105 17 -82 10
-124 27 -420 167 -96 46 -210 99 -252 118 l-78 36 63 63 c35 35 82 90 104 123
l41 61 11 394 c7 217 16 510 21 650 6 140 19 566 30 945 10 380 21 724 24 765
6 87 37 182 131 399 317 734 375 902 376 1096 1 115 -11 157 -69 242 -21 32
-72 119 -112 193 -84 156 -625 1118 -708 1260 -153 262 -359 540 -665 895
-280 324 -523 576 -752 777 -152 133 -526 533 -636 679 -27 36 -95 103 -151
150 -57 46 -139 118 -183 160 -44 42 -90 82 -103 88 -33 17 -85 -2 -138 -51
l-42 -39 -29 30 c-43 43 -115 60 -322 76 -290 23 -390 45 -745 161 -255 83
-295 92 -473 104 -207 14 -1715 8 -1804 -6z"/>
<path d="M423 9829 c-71 -35 -112 -126 -92 -204 17 -61 83 -121 143 -130 64
-10 128 16 170 68 28 35 31 46 31 106 0 59 -4 72 -29 105 -54 71 -145 94 -223
55z m151 -32 c122 -70 89 -245 -52 -273 -94 -19 -187 85 -161 180 27 99 127
143 213 93z"/>
<path d="M214 9655 c-4 -9 1 -65 11 -126 9 -61 15 -112 13 -115 -2 -2 -51 25
-108 61 -94 59 -120 68 -120 46 0 -5 53 -40 119 -79 l118 -71 12 -76 c6 -42
11 -85 11 -95 0 -11 7 -20 15 -20 8 0 15 2 15 5 0 2 -13 101 -30 220 -16 119
-30 227 -30 240 0 28 -17 34 -26 10z"/>
</g>
</svg>
